<mxfile host="app.diagrams.net" agent="Mozilla/5.0 (Windows NT 10.0; Win64; x64) AppleWebKit/537.36 (KHTML, like Gecko) Chrome/130.0.0.0 Safari/537.36 Edg/130.0.0.0" version="24.8.0">
  <diagram name="Page-1" id="ngHX4EE587XtfGfxgyqJ">
    <mxGraphModel dx="576" dy="791" grid="0" gridSize="10" guides="1" tooltips="1" connect="1" arrows="1" fold="1" page="1" pageScale="1" pageWidth="850" pageHeight="1100" background="#000000" math="0" shadow="0">
      <root>
        <mxCell id="0" />
        <mxCell id="1" parent="0" />
        <mxCell id="T3eWA7ei2hvbH5sv8-uU-21" value="" style="rounded=0;whiteSpace=wrap;html=1;fillColor=#000000;strokeColor=#FFFFFF;" vertex="1" parent="1">
          <mxGeometry x="984" y="281" width="558" height="229" as="geometry" />
        </mxCell>
        <mxCell id="T3eWA7ei2hvbH5sv8-uU-1" value="" style="endArrow=none;dashed=1;html=1;rounded=0;strokeColor=#FFFFFF;" edge="1" parent="1">
          <mxGeometry width="50" height="50" relative="1" as="geometry">
            <mxPoint x="1067" y="651" as="sourcePoint" />
            <mxPoint x="1067" y="206" as="targetPoint" />
          </mxGeometry>
        </mxCell>
        <mxCell id="T3eWA7ei2hvbH5sv8-uU-2" value="" style="endArrow=none;dashed=1;html=1;rounded=0;strokeColor=#FFFFFF;" edge="1" parent="1">
          <mxGeometry width="50" height="50" relative="1" as="geometry">
            <mxPoint x="1433" y="659" as="sourcePoint" />
            <mxPoint x="1433" y="214" as="targetPoint" />
          </mxGeometry>
        </mxCell>
        <mxCell id="T3eWA7ei2hvbH5sv8-uU-3" value="&lt;font color=&quot;#ffffff&quot;&gt;&lt;u&gt;:Instructor&lt;/u&gt;&lt;/font&gt;" style="text;html=1;align=center;verticalAlign=middle;whiteSpace=wrap;rounded=0;" vertex="1" parent="1">
          <mxGeometry x="1036" y="175" width="60" height="30" as="geometry" />
        </mxCell>
        <mxCell id="T3eWA7ei2hvbH5sv8-uU-4" value="" style="rounded=0;whiteSpace=wrap;html=1;fillColor=#000000;strokeColor=#FFFFFF;" vertex="1" parent="1">
          <mxGeometry x="1374" y="150" width="120" height="60" as="geometry" />
        </mxCell>
        <mxCell id="T3eWA7ei2hvbH5sv8-uU-5" value="&lt;font color=&quot;#ffffff&quot;&gt;&lt;u&gt;:System&lt;/u&gt;&lt;/font&gt;" style="text;html=1;align=center;verticalAlign=middle;whiteSpace=wrap;rounded=0;" vertex="1" parent="1">
          <mxGeometry x="1404" y="165" width="60" height="30" as="geometry" />
        </mxCell>
        <mxCell id="T3eWA7ei2hvbH5sv8-uU-6" value="" style="endArrow=classic;html=1;rounded=0;strokeColor=#FFFFFF;" edge="1" parent="1">
          <mxGeometry width="50" height="50" relative="1" as="geometry">
            <mxPoint x="1067" y="258" as="sourcePoint" />
            <mxPoint x="1436" y="258" as="targetPoint" />
          </mxGeometry>
        </mxCell>
        <mxCell id="T3eWA7ei2hvbH5sv8-uU-7" value="&lt;font color=&quot;#ffffff&quot;&gt;AvailibilityRegistration()&lt;/font&gt;" style="text;html=1;align=center;verticalAlign=middle;whiteSpace=wrap;rounded=0;" vertex="1" parent="1">
          <mxGeometry x="1213" y="228" width="60" height="30" as="geometry" />
        </mxCell>
        <mxCell id="T3eWA7ei2hvbH5sv8-uU-8" value="" style="endArrow=classic;html=1;rounded=0;strokeColor=#FFFFFF;" edge="1" parent="1">
          <mxGeometry width="50" height="50" relative="1" as="geometry">
            <mxPoint x="1067" y="320" as="sourcePoint" />
            <mxPoint x="1436" y="320" as="targetPoint" />
          </mxGeometry>
        </mxCell>
        <mxCell id="T3eWA7ei2hvbH5sv8-uU-9" value="&lt;font color=&quot;#ffffff&quot;&gt;SelectOffering(Offering)&lt;/font&gt;" style="text;html=1;align=center;verticalAlign=middle;whiteSpace=wrap;rounded=0;" vertex="1" parent="1">
          <mxGeometry x="1129" y="291" width="243" height="30" as="geometry" />
        </mxCell>
        <mxCell id="T3eWA7ei2hvbH5sv8-uU-10" value="" style="endArrow=classic;html=1;rounded=0;strokeColor=#FFFFFF;dashed=1;" edge="1" parent="1">
          <mxGeometry width="50" height="50" relative="1" as="geometry">
            <mxPoint x="1431" y="371" as="sourcePoint" />
            <mxPoint x="1066" y="371" as="targetPoint" />
          </mxGeometry>
        </mxCell>
        <mxCell id="T3eWA7ei2hvbH5sv8-uU-11" value="&lt;font style=&quot;background-color: rgb(0, 0, 0);&quot; color=&quot;#ffffff&quot;&gt;Offering&lt;/font&gt;" style="text;html=1;align=center;verticalAlign=middle;whiteSpace=wrap;rounded=0;" vertex="1" parent="1">
          <mxGeometry x="1126" y="341" width="243" height="30" as="geometry" />
        </mxCell>
        <mxCell id="T3eWA7ei2hvbH5sv8-uU-12" value="" style="endArrow=classic;html=1;rounded=0;strokeColor=#FFFFFF;" edge="1" parent="1">
          <mxGeometry width="50" height="50" relative="1" as="geometry">
            <mxPoint x="1066" y="479" as="sourcePoint" />
            <mxPoint x="1435" y="479" as="targetPoint" />
          </mxGeometry>
        </mxCell>
        <mxCell id="T3eWA7ei2hvbH5sv8-uU-13" value="&lt;font color=&quot;#ffffff&quot;&gt;EndOfferingSelection&lt;/font&gt;" style="text;html=1;align=center;verticalAlign=middle;whiteSpace=wrap;rounded=0;" vertex="1" parent="1">
          <mxGeometry x="1128" y="450" width="243" height="30" as="geometry" />
        </mxCell>
        <mxCell id="T3eWA7ei2hvbH5sv8-uU-18" value="" style="endArrow=classic;html=1;rounded=0;strokeColor=#FFFFFF;dashed=1;" edge="1" parent="1">
          <mxGeometry width="50" height="50" relative="1" as="geometry">
            <mxPoint x="1428.5" y="422" as="sourcePoint" />
            <mxPoint x="1063.5" y="422" as="targetPoint" />
          </mxGeometry>
        </mxCell>
        <mxCell id="T3eWA7ei2hvbH5sv8-uU-19" value="&lt;font color=&quot;#ffffff&quot;&gt;&lt;span style=&quot;background-color: rgb(0, 0, 0);&quot;&gt;MakeAvailableforClient&lt;/span&gt;&lt;/font&gt;" style="text;html=1;align=center;verticalAlign=middle;whiteSpace=wrap;rounded=0;" vertex="1" parent="1">
          <mxGeometry x="1123.5" y="392" width="243" height="30" as="geometry" />
        </mxCell>
        <mxCell id="T3eWA7ei2hvbH5sv8-uU-20" value="&lt;span style=&quot;color: rgb(255, 255, 255);&quot;&gt;loop&lt;/span&gt;" style="rounded=0;whiteSpace=wrap;html=1;fillColor=#000000;strokeColor=#FFFFFF;" vertex="1" parent="1">
          <mxGeometry x="984" y="281" width="54" height="34" as="geometry" />
        </mxCell>
      </root>
    </mxGraphModel>
  </diagram>
</mxfile>
